<svg preserveAspectRatio="none" width="100%" height="100%" overflow="visible" style="display: block;" viewBox="0 0 36 36" fill="none" xmlns="http://www.w3.org/2000/svg">
<g id="Frame 10">
<rect x="1" y="1" width="34" height="34" rx="17" fill="var(--fill-0, #ECE9DD)"/>
<rect x="1" y="1" width="34" height="34" rx="17" stroke="var(--stroke-0, #222124)" stroke-width="2"/>
<path id="Vector" d="M14.6642 18.1577C13.5401 18.1577 13.4933 18.2027 13.4933 18.8786V22.0541C13.4933 24.4186 13.6104 24.734 14.9217 24.8692L15.6008 24.9367C15.7413 25.0269 15.6945 25.4324 15.554 25.5C14.2895 25.4549 13.4933 25.4324 12.5811 25.4324C11.5742 25.4324 10.778 25.4775 9.86584 25.5C9.72534 25.4324 9.6785 25.0719 9.81901 24.9367L10.2171 24.8692C11.5285 24.6439 11.5753 24.4186 11.5753 22.0541V13.9459C11.5753 11.5814 11.4114 11.1984 10.1937 11.1083L9.58484 11.0632C9.44433 10.9731 9.49117 10.5676 9.63167 10.5C10.7791 10.5225 11.5753 10.5676 12.5811 10.5676C13.4944 10.5676 14.2906 10.5451 15.2964 10.5C15.4369 10.5676 15.4838 10.9731 15.3433 11.0632L14.8983 11.1083C13.5401 11.2435 13.4933 11.5814 13.4933 13.9459V16.5367C13.4933 17.2351 13.5401 17.2576 14.6642 17.2576H21.3592C22.4833 17.2576 22.5301 17.2351 22.5301 16.5367V13.9459C22.5301 11.5814 22.4833 11.2435 21.1017 11.1083L20.6567 11.0632C20.5162 10.9731 20.5631 10.5676 20.7036 10.5C21.7808 10.5451 22.577 10.5676 23.5359 10.5676C24.495 10.5676 25.2454 10.5451 26.298 10.5C26.4386 10.5676 26.4854 10.9731 26.3449 11.0632L25.8531 11.1083C24.495 11.2435 24.4481 11.5814 24.4481 13.9459V22.0541C24.4481 24.4186 24.495 24.7115 25.8531 24.8692L26.4152 24.9367C26.5556 25.0269 26.5088 25.4324 26.3683 25.5C25.2443 25.4549 24.4481 25.4324 23.5359 25.4324C22.5759 25.4324 21.7329 25.4549 20.7036 25.5C20.5631 25.4324 20.5162 25.0719 20.6567 24.9367L21.1017 24.8692C22.5301 24.6439 22.5301 24.4186 22.5301 22.0541V18.8786C22.5301 18.2027 22.4833 18.1577 21.3592 18.1577H14.6642Z" fill="var(--fill-0, #231F20)"/>
</g>
</svg>
